<svg xmlns="http://www.w3.org/2000/svg" width="44.611" height="46.997" viewBox="0 0 44.611 46.997"><defs><style>.a{fill:#f1d892;}</style></defs><path class="a" d="M3585.858,4145.612a7.771,7.771,0,0,0,1.172-2.021,4.963,4.963,0,0,0-.28-4.092,2.253,2.253,0,0,0-1.2-.92c.083-.8.1-2.553-1.182-3.3a2.439,2.439,0,0,0-1.235-.312,5.86,5.86,0,0,0-2.981,1.08,2.2,2.2,0,0,0-2.335-.165,3.115,3.115,0,0,0-.136-1.008,2.093,2.093,0,0,0-2.739-1.445,3.71,3.71,0,0,0,.113-.469,2.353,2.353,0,0,0-.353-1.973,1.76,1.76,0,0,0-1.356-.588h-.179a8.132,8.132,0,0,0-3.366,1.187,1.894,1.894,0,0,0-.631-.315,1.854,1.854,0,0,0-.541-.078h0c-1.5,0-3.063,1.615-4.531,3.271l-.034.039c-.169.189-.315.355-.434.479a39.954,39.954,0,0,0-4.531,5.763,2.089,2.089,0,0,0-1.153-1.148,1.813,1.813,0,0,0-.608-.1h0c-1.388,0-2.581,1.585-3.221,2.437l-.083.111a9.056,9.056,0,0,0-1.526,5,20.586,20.586,0,0,1-2.168,7.261c-1.87,3.8-4.132,8.094-7.3,10.968a.921.921,0,0,0-.252,1.032,1.024,1.024,0,0,0,.936.646.971.971,0,0,0,.653-.257c.018-.015.034-.031.051-.047a5.681,5.681,0,0,1,2.447,1.716,11.342,11.342,0,0,0,1.82,1.529,1.569,1.569,0,0,0,.23,1.119,11.643,11.643,0,0,0,1.91,2.364,17.031,17.031,0,0,0,4.487,2.977v.046a.966.966,0,0,0,.517.84l.1.05a1.035,1.035,0,0,0,.469.112.938.938,0,0,0,.6-.21,1,1,0,0,0,1.133-.741.929.929,0,0,0-.154-.8,9.385,9.385,0,0,1,1.917-1.983,30.328,30.328,0,0,1,2.934-2.012c.57-.358,1.16-.729,1.729-1.118a58.786,58.786,0,0,0,8.016-7.059l.076-.075c.307-.305.615-.611.922-.914.8-.79,1.6-1.573,2.407-2.357l.042-.042c2.241-2.183,4.559-4.441,6.709-6.785C3584.311,4151.6,3586.924,4148.754,3585.858,4145.612Zm-13.552-13.8c.217.082.365.379.44.879l.005.034.027.023a1.043,1.043,0,0,1,.479.72.694.694,0,0,1-.3.519l-.02.017-.009.025a5.671,5.671,0,0,1-1.05,1.583l-.352.251a.441.441,0,0,0-.186.355c-.271.3-.492.557-.664.786l-4.738,6.275a.37.37,0,0,0,.077.548.477.477,0,0,0,.678-.083l4.532-6c.271-.36.613-.751.975-1.165l.273-.318a5.942,5.942,0,0,1,1.987-1.132l.033-.015a.661.661,0,0,1,.567-.174c.206.061.385.294.533.7l.014.037.036.016c.378.158.6.345.664.555a.684.684,0,0,1-.151.576l-.013.032a4.246,4.246,0,0,1-.686,1.325l-.1.152c-.691,1.041-1.447,2.067-2.179,3.061-.355.482-.709.964-1.058,1.447a.379.379,0,0,0-.063.354.445.445,0,0,0,.206.233l-5.646,8.59a15.407,15.407,0,0,1,.848-2.212,10.869,10.869,0,0,0,1.06-3.314,3.609,3.609,0,0,0-.459-2.413.993.993,0,0,0-.765-.332h0c-1.057,0-2.349,1.468-3.2,2.439-.188.213-.35.4-.487.54a15.6,15.6,0,0,0-3.359,4.932,13.6,13.6,0,0,0-.747,3.712,19.874,19.874,0,0,1-.376,2.532,15.794,15.794,0,0,1-4,7.035,29.1,29.1,0,0,1-2.617,2.461c-.14.119-.3.267-.465.423a4.736,4.736,0,0,1-1.318,1c-.634.215-1.1-.124-1.6-.484-.071-.051-.142-.1-.214-.153a14.248,14.248,0,0,1-1.209-1,8.576,8.576,0,0,0-2.7-1.848,35.951,35.951,0,0,0,4.61-6.731l.046-.079c1.764-3.049,3.4-6.064,4.028-9.443a18.292,18.292,0,0,0,.214-1.877,8.549,8.549,0,0,1,.86-3.709,6.693,6.693,0,0,1,1.776-2.087c.464-.259.826-.3,1.075-.111.635.471.482,2.247.309,3.034-.124.56-.305,1.118-.48,1.659a10.133,10.133,0,0,0-.652,3.062,11.147,11.147,0,0,0,.29,2.243,6.924,6.924,0,0,1,.118,3.361.411.411,0,0,0,.1.41.484.484,0,0,0,.459.128.417.417,0,0,0,.3-.3,7.5,7.5,0,0,0-.093-3.574,11.767,11.767,0,0,1-.283-2.267,10.142,10.142,0,0,1,.648-3.049,11.488,11.488,0,0,0,.647-2.771.407.407,0,0,0,.379-.21,37.8,37.8,0,0,1,7.663-9.321c.047-.039.1-.09.162-.146.321-.3.859-.788,1.25-.722a.5.5,0,0,1,.343.292.425.425,0,0,0,.125.326,2.69,2.69,0,0,1,.06.274c.042.249-.307.822-.515,1.165-.061.1-.115.188-.153.258a22.958,22.958,0,0,1-1.5,2.26l-.179.246a69.333,69.333,0,0,1-4.419,5.485.434.434,0,0,0-.093.436.49.49,0,0,0,.35.321.391.391,0,0,0,.379-.137l.129-.146c4.458-4.995,6.865-8.612,6.967-10.469a6.986,6.986,0,0,1,1.471-.961C3571.775,4131.856,3572.087,4131.731,3572.306,4131.815Zm6.775,20.131a.4.4,0,0,0,.12.574.452.452,0,0,0,.642-.117,51.462,51.462,0,0,1,3.834-5.078c.2-.231.4-.46.611-.69q.155-.173.309-.347c.8,2.911-2.712,6.165-5.047,8.329-.434.4-.844.782-1.175,1.113l-.093.093c-2.709,2.7-5.51,5.5-8.3,8.219a52.181,52.181,0,0,1-8.373,6.714,22.454,22.454,0,0,0-3.431,2.531,18.927,18.927,0,0,0-1.579,2.125l-.419-.217a23.317,23.317,0,0,1-3.427-2.027,10.173,10.173,0,0,1-1.74-1.738c-.535-.658-.764-.966-.746-1.545a2.573,2.573,0,0,0,1.591-.822c.106-.089.214-.18.323-.267,3.85-3.063,6.189-5.995,7.36-9.226a15.267,15.267,0,0,0,.7-3.642,22.816,22.816,0,0,1,.349-2.422,12.629,12.629,0,0,1,3.259-5.749c.125-.137.254-.284.389-.437a8.587,8.587,0,0,1,1.832-1.727l.38-.33,1.243.6c.062.114.111.542-.459,2.145-.194.548-.427,1.08-.651,1.591a8.967,8.967,0,0,0-1.068,4.214.448.448,0,0,0,.825.224l7.593-11.552a.4.4,0,0,0,.063-.322.423.423,0,0,0-.139-.217q.438-.6.873-1.194a.4.4,0,0,0,.434-.207l.132-.236c.573-1.028,1.357-2.434,2.4-2.863a1.5,1.5,0,0,1,1.614.1,1.659,1.659,0,0,1,.245,1.757,5.167,5.167,0,0,1-.822,1.425c-.1.139-.2.275-.292.412-1.5,2.2-3.139,4.447-4.883,6.68a.537.537,0,0,0,0,.622.359.359,0,0,0,.445.109l.37-.152a.474.474,0,0,0,.274-.558c1.51-1.955,2.813-3.725,3.981-5.413.134-.193.289-.4.454-.622.9-1.2,2.12-2.844,1.48-4.321l.02-.014.031-.023a3.888,3.888,0,0,1,1.7-.884,1.7,1.7,0,0,1,1.555.5c.554.72.177,2.005.049,2.382a10.826,10.826,0,0,1-1.941,3.073c-.151.19-.3.377-.446.563-1.669,2.152-3.49,4.37-5.41,6.592a.44.44,0,0,0-.087.442.482.482,0,0,0,.352.317.382.382,0,0,0,.372-.141c1.719-1.989,3.346-3.958,4.836-5.854.213-.27.436-.543.661-.819a13.8,13.8,0,0,0,2.445-3.742,1.038,1.038,0,0,1,.988.469c.557.9.01,2.867-.427,3.621a13.14,13.14,0,0,1-1.71,2.165c-.243.267-.494.544-.729.819A53.123,53.123,0,0,0,3579.082,4151.946Z" transform="translate(-3542.727 -4130.398)"/></svg>