<svg xmlns="http://www.w3.org/2000/svg" width="42.032" height="46.071" viewBox="0 0 42.032 46.071"><defs><style>.a{fill:#f1d892;}.b{fill:none;}.c{fill:#fff;}.d{fill:#fffefa;stroke:#f1d892;}</style></defs><g transform="translate(-654.757 -3658.814)"><g transform="translate(654.757 3659.31)"><g transform="translate(0 6.03)"><path class="a" d="M1515.22,686.331l2.39.763c-1.229-4.137.143-7.591,1.163-11.145a22,22,0,0,0,.657-5.519c.046-2.1.829-3.648,2.625-4.446a6.664,6.664,0,0,0,3.43-3.6,8.851,8.851,0,0,1,12.432-4.019c.547.306.875,1.017,1.4,1.392a13.415,13.415,0,0,0,3.09,1.905,8.6,8.6,0,0,1,6.01,7.91,7.391,7.391,0,0,0,2.04,5.267,4.281,4.281,0,0,1,.821,2.906,8.671,8.671,0,0,0,.8,4.23,21.2,21.2,0,0,1,.931,4.306c1.152.518,3.1.794,3.984,2.3-1.015.954-2.321,1.612-2.709,2.649-1.4,3.733-4.286,4.706-7.589,4.858-6.915.321-13.837.593-20.757.66a28.141,28.141,0,0,1-6.6-1.09,2.979,2.979,0,0,1-1.844-1.493c-.969-2.322-1.72-4.744-2.529-7.136C1514.925,686.895,1515.09,686.681,1515.22,686.331Zm36.093-.728c-.359-1.456-.368-2.414-.8-3.06a5.632,5.632,0,0,1-.912-4.977,2.3,2.3,0,0,0-.462-1.8c-1.754-1.979-2.3-4.373-2.64-6.948-.368-2.793-1.643-4.876-4.478-5.744a8.588,8.588,0,0,1-3.85-2.192c-1.6-1.8-3.607-1.877-5.572-2.02-2.454-.177-4.241,1.092-5.333,3.473a8.759,8.759,0,0,1-4.589,4.89c-1.619.658-1.981,2.271-1.91,3.915a16.406,16.406,0,0,1-1.529,7.668,10.827,10.827,0,0,0-.5,6.343c.359,2.343,1.457,3.017,3.58,2.2a33.9,33.9,0,0,0,3.3-1.684l1.486,1.415c1.512,1.436,3.014,1.654,4.761.292a19.675,19.675,0,0,1,3.316-1.751l2.7,2.726c2.8-1.423,5.314-3.627,7.867-.543C1547.626,687.063,1548.442,684.6,1551.313,685.6Zm-16.917,2.446c-2.961,1.3-3.058,1.491-2.829,4.9.164,2.418.663,2.716,3.18,1.7C1534.638,692.593,1534.525,690.472,1534.4,688.048Zm-4.61,7.172c-.076-1.8-.145-3.411-.219-5.162l-3.053-.71c.081,1.67.038,3.02.234,4.331C1527.031,695.576,1527.206,695.624,1529.786,695.221Zm-4.851-7.521c-2.3,1.443-2.814,2.462-2.164,4.679.288.983.169,2.782,2.336,2.276,0-1.748.01-3.486-.007-5.223C1525.1,688.963,1525.014,688.5,1524.935,687.7Zm17.592.274c-2.477.8-2.539.885-2.39,3.1.22,3.282.229,3.3,2.39,3.723Zm-4.794,7.392c1.407-2,.8-3.76.574-5.554l-2.3-.709C1536.6,691.317,1536.122,693.394,1537.732,695.367ZM1521.1,694c0-1.289.066-2.451-.038-3.594a1.417,1.417,0,0,0-.807-.973c-.351-.12-1.163.085-1.188.247a12.531,12.531,0,0,0-.162,3.046C1519.01,693.874,1519.7,694.4,1521.1,694Zm29.193-.364c2.339-.9,1.84-2.89,1.988-4.747C1550,689.7,1549.879,690.009,1550.293,693.636Zm-5.41-3.936c-.112,1.6-.943,3.319.543,5.071A4.785,4.785,0,0,0,1544.884,689.7Zm2.757,4.208.385.035V688.8l-.385.008Z" transform="translate(-1514.964 -657.207)"/><path class="b" d="M1549.822,685.379c-2.769-1-3.557,1.46-5.369,2.2-2.464-3.084-4.891-.88-7.59.543l-2.6-2.726a18.759,18.759,0,0,0-3.2,1.751c-1.686,1.362-3.135,1.144-4.593-.292l-1.433-1.415a32.308,32.308,0,0,1-3.181,1.684c-2.048.817-3.107.142-3.453-2.2a11.2,11.2,0,0,1,.479-6.343,16.922,16.922,0,0,0,1.475-7.668c-.069-1.643.28-3.257,1.842-3.915a8.638,8.638,0,0,0,4.427-4.89c1.054-2.381,2.778-3.651,5.145-3.473,1.9.142,3.829.218,5.376,2.02a8.219,8.219,0,0,0,3.714,2.192c2.735.869,3.965,2.951,4.32,5.744.326,2.574.854,4.968,2.547,6.948a2.362,2.362,0,0,1,.445,1.8,5.8,5.8,0,0,0,.88,4.977A12.107,12.107,0,0,1,1549.822,685.379Z" transform="translate(-1514.185 -656.983)"/><path class="c" d="M1542.127,685.263a4.358,4.358,0,0,1,.612,5.072C1541.066,688.582,1542,686.867,1542.127,685.263Z" transform="translate(-1512.289 -652.77)"/><path class="c" d="M1544.55,689.593V684.5l.434-.008v5.138Z" transform="translate(-1511.911 -652.893)"/></g><g transform="translate(11.705 0)"><path class="d" d="M681.826,708.392a3.964,3.964,0,0,1-2.082.651c-1.339.053-2.676.171-4.013.267a14.026,14.026,0,0,1-3.816-.039,2.777,2.777,0,0,0-1.2.055,3.341,3.341,0,0,1-2.352-.233,1.629,1.629,0,0,1-.67-2.511,4.328,4.328,0,0,1,1.812-1.544,1.3,1.3,0,0,0,.341-.253,10.353,10.353,0,0,1-.064-1.938c.181-1.14,1.143-1.6,2.066-2.02.713-.327,1.468-.561,2.18-.89s.884-.716.707-1.364c-.2-.727-.524-.885-1.226-.6-.148-.533-.064-.689.394-.8a1.734,1.734,0,0,1,1.425.434,3.761,3.761,0,0,1,1.791,2.612,1.454,1.454,0,0,0,.838,1.054,3.126,3.126,0,0,1,1.661,2.564c.037.5.459.642.777.87s.664.381.985.587a2.112,2.112,0,0,1,.813,1.1,1.319,1.319,0,0,1-.037,1.246m-12.09-2.584c-.6.464-1.233.968-1.883,1.442a1.245,1.245,0,0,0,.766,2.234,12.307,12.307,0,0,0,1.632-.011c.246-.016.543-.265.718-.188a4.687,4.687,0,0,0,2.094.155c2.192-.028,4.384-.037,6.575-.1a2.707,2.707,0,0,0,1.23-.4,1.413,1.413,0,0,0-.05-2.364c-.528-.411-1.124-.733-1.709-1.107a2.29,2.29,0,0,1-1.724.868c.44-.4.8-.727,1.148-1.052a.877.877,0,0,0,.186-1.114,3.673,3.673,0,0,0-1.06-1.411,2.951,2.951,0,0,1-1.472-2.031,2.314,2.314,0,0,0-1.3-1.686c.271,1.015.211,1.344-.814,2.035a7.888,7.888,0,0,1-1.309.647c-.6.258-1.235.443-1.815.737a1.923,1.923,0,0,0-.973,2.6,6.349,6.349,0,0,0,1,1.092Z" transform="translate(-667.347 -697.144)"/><path class="d" d="M670.365,706.009c-.629.484-1.285,1.008-1.962,1.5a1.3,1.3,0,0,0,.8,2.328,12.827,12.827,0,0,0,1.7-.011c.257-.016.566-.276.748-.2a4.883,4.883,0,0,0,2.182.161c2.283-.03,4.567-.038,6.85-.107a2.82,2.82,0,0,0,1.281-.42,1.472,1.472,0,0,0-.052-2.463c-.55-.428-1.171-.763-1.781-1.153a2.386,2.386,0,0,1-1.8.9c.459-.42.828-.757,1.2-1.1a.913.913,0,0,0,.193-1.16,3.828,3.828,0,0,0-1.1-1.47,3.074,3.074,0,0,1-1.534-2.116,2.411,2.411,0,0,0-1.357-1.756c.282,1.058.22,1.4-.848,2.12a8.225,8.225,0,0,1-1.364.674c-.625.269-1.287.461-1.891.768a2,2,0,0,0-1.014,2.712,6.611,6.611,0,0,0,1.039,1.138Z" transform="translate(-667.895 -698.262)"/></g></g><g transform="translate(663.123 3673.109)"><path class="a" d="M653.1,642.115c-1.666,3.2-2.555,4.329-3.686,4.621A10.665,10.665,0,0,1,653.1,642.115Z" transform="translate(-649.412 -638.973)"/><path class="a" d="M664.763,649.023c-2.311-.115-4.467-.539-5.869-2.758Z" transform="translate(-652.738 -639.881)"/><path class="a" d="M4.431,1.869C2.686,1.792,1.058,1.5,0,0Z" transform="translate(18.903 0) rotate(43)"/><path class="a" d="M662.962,641.383a7.349,7.349,0,0,1-4.064-2.491C660.439,639.644,661.956,639.886,662.962,641.383Z" transform="translate(-651.839 -638.148)"/><path class="a" d="M658.9,641.383a7.349,7.349,0,0,0,4.064-2.491C661.421,639.644,659.9,639.886,658.9,641.383Z" transform="translate(-644.402 -634.503)"/></g><g transform="translate(659.704 3681.522)"><path class="a" d="M0,4.621C1.666,1.424,2.555.292,3.686,0A10.665,10.665,0,0,1,0,4.621Z" transform="translate(23.957 1.078) rotate(-17)"/><path class="a" d="M658.894,646.265c2.311.115,4.467.539,5.869,2.758Z" transform="translate(-642.093 -643.785)"/><path class="a" d="M658.894,646.265c2.311.115,4.467.539,5.869,2.758Z" transform="translate(-653.502 -638.532)"/><path class="a" d="M0,0C2.311.115,4.467.539,5.869,2.758Z" transform="translate(23.957 12.041) rotate(-42)"/><path class="a" d="M4.431,1.869C2.686,1.792,1.058,1.5,0,0Z" transform="translate(10.823 6.188) rotate(-137)"/><path class="a" d="M658.9,638.892a7.348,7.348,0,0,1,4.064,2.491C661.421,640.631,659.9,640.388,658.9,638.892Z" transform="translate(-658.898 -629.645)"/><path class="a" d="M662.962,638.892a7.348,7.348,0,0,0-4.064,2.491C660.439,640.631,661.956,640.388,662.962,638.892Z" transform="translate(-657.962 -636.144)"/><path class="a" d="M2.905,0A5.334,5.334,0,0,0,0,1.633C1.1,1.14,2.186.981,2.905,0Z" transform="matrix(0.809, -0.588, 0.588, 0.809, 21.931, 8.307)"/></g><path class="a" d="M662.962,641.383a7.349,7.349,0,0,1-4.064-2.491C660.439,639.644,661.956,639.886,662.962,641.383Z" transform="translate(16.875 3052.075)"/><path class="a" d="M658.9,641.383a7.349,7.349,0,0,0,4.064-2.491C661.421,639.644,659.9,639.886,658.9,641.383Z" transform="translate(14.553 3048.153)"/></g></svg>