<?xml version="1.0" encoding="utf-8"?>
<!-- Generator: Adobe Illustrator 25.3.0, SVG Export Plug-In . SVG Version: 6.00 Build 0)  -->
<svg version="1.1" id="Layer_1" xmlns="http://www.w3.org/2000/svg" xmlns:xlink="http://www.w3.org/1999/xlink" x="0px" y="0px"
	 viewBox="0 0 357 100" style="enable-background:new 0 0 357 100;" xml:space="preserve">
<style type="text/css">
	.st0{fill:#FFFFFF;}
	.st1{stroke:#000000;stroke-width:0.6348;stroke-miterlimit:10;}
</style>
<path class="st0" d="M251.3,61.4c9.8,0.3,19.6,0.4,29.3,0.6c14.7,0.5,29.5,1,44.1,1.7c9.3,0.4,18.7,1.1,27.9,1.8
	c0.5,0,0.9-0.4,1.4-0.6c-0.4-0.3-0.9-0.8-1.4-0.9c-5.3-0.5-10.7-0.9-16.1-1.1c-18.4-0.9-36.8-1.8-55.2-2.3
	c-13.3-0.4-26.5-0.6-39.9-0.6c-7.9,0-15.9,0.4-23.7,0.6c-12.2,0.5-24.4,1.3-36.7,1.9c-11.7,0.6-23.4,1.4-35,2
	c-11,0.6-22.2,1.3-33.3,1.9c-12.8,0.8-25.8,1.5-38.6,2.3c-11.3,0.6-22.5,1.3-33.8,2c-7.9,0.5-15.6,0.9-23.4-0.9
	c-3.4-0.8-7-1.7-9.9-3.7c-3.4-2.3-4.2-5.3-2.4-9c0.5-1,1.1-2,1.9-2.9c0.5-0.8,1-1.3,2.3-0.9c1.1,0.4,2.3-0.6,2.5-1.8
	c0.3-1.3-0.4-2.4-1.7-2.8C8.5,48.3,7,49,6.9,50.1c-0.1,1.5-1.3,2.4-2,3.7c-0.8,1.4-1.7,2.7-2.2,4.2c-1.3,3.3-0.5,6.3,2.3,8.6
	c1.4,1.1,3,2.2,4.7,2.8c6.9,2.8,14.1,3.6,21.5,3.4c4.2,0,8.3-0.5,12.4-0.8c16-1,32-1.9,48-2.8c18-1,35.9-2.2,54-3.2
	c17-1,33.9-1.9,50.9-2.8C214.9,62.3,233,60.9,251.3,61.4z"/>
<path d="M247,61.4c-17.9-0.5-35.8,0.9-53.7,1.9c-16.6,1-33.4,1.9-50,2.8c-17.6,1-35.3,2.2-52.9,3.2c-15.7,1-31.5,1.9-47.2,2.8
	c-4.1,0.3-8.1,0.8-12.2,0.8c-7.2,0-14.3-0.8-21.1-3.4c-1.7-0.6-3.2-1.7-4.6-2.8c-2.7-2.3-3.4-5.3-2.2-8.6c0.5-1.4,1.4-2.8,2.2-4.2
	c0.8-1.1,1.8-2,1.9-3.7c0.1-1.1,1.7-1.8,2.8-1.4c1.1,0.4,1.8,1.5,1.7,2.8c-0.3,1.1-1.4,2.2-2.5,1.8c-1.1-0.4-1.7,0.1-2.2,0.9
	c-0.6,1-1.3,1.9-1.8,2.9c-1.8,3.7-1,6.7,2.3,9c2.9,2,6.3,2.9,9.8,3.7c7.6,1.7,15.2,1.4,23,0.9C50.9,70.2,62,69.6,73,68.9
	c12.7-0.8,25.3-1.5,38-2.3c10.9-0.6,21.8-1.3,32.8-1.9c11.6-0.6,23-1.4,34.5-2c12.1-0.6,24-1.4,36.1-1.9c7.7-0.4,15.5-0.8,23.4-0.6
	c13.1,0,26.2,0.1,39.2,0.6c18,0.6,36.2,1.5,54.2,2.3c5.3,0.3,10.5,0.8,15.9,1.1c0.5,0,0.9,0.5,1.3,0.9c-0.5,0.3-0.9,0.6-1.4,0.6
	c-9.1-0.5-18.3-1.4-27.4-1.8c-14.5-0.6-28.9-1.1-43.3-1.7C266.3,61.8,256.6,61.7,247,61.4z"/>
<g>
	<path class="st1" d="M62.2,46.3L60.3,49h-3.7l2.2-3c-4.2-0.8-7.7-2.3-11-4.6c-6.7,5.5-13.2,8.3-19.3,8.3c-2.7,0-5.1-0.8-7.2-2.2
		c-2.2-1.4-3.3-3.2-3.3-5.3c0-1.1,0.4-2,1-2.7c0.6-0.6,1.4-1,2.2-1c0.8,0,1.4,0.3,1.9,0.8c0.5,0.5,0.8,1.1,0.8,1.8s-0.3,1.1-0.6,1.5
		c-0.4,0.4-1,0.6-1.7,0.6c-1.4,0-2.2-0.9-2.3-2.8h-0.1c-0.5,0.6-0.8,1.4-0.8,2.2c0,1.8,1,3.4,3.2,4.7c2.2,1.4,4.6,2,7.4,2
		c3.3,0,6.7-0.9,10.4-2.8c3.7-1.8,6.3-3.7,8.3-5.5c-5-4.7-7.5-9.8-7.5-15.1c0-3.3,0.9-6.1,2.7-8.4c1.8-2.3,3.9-3.4,6.6-3.4
		c2.9,0,5.7,1.1,8.1,3.6c2.4,2.4,4.3,5.5,5.6,9.4c9.3-8.6,15.9-14.2,19.8-16.9c3.9-2.7,7.6-4.7,10.8-6s6.2-2,9-2.2l-9.4,8.5
		c-4.4,4.1-10.2,10-16.9,18c-6.7,8-11.3,13.7-13.8,17.3c3.8-0.3,7-1.4,9.4-3.4l0.3,0.3C69.7,44.8,66.4,45.9,62.2,46.3z M47.9,41
		c1.8-1.4,4.3-3.6,7.7-6.7s5.7-5.3,7.1-6.9c-0.9-3.2-2.5-6-4.8-8.3c-2.3-2.3-4.7-3.6-7.5-3.6c-2.8,0-5.2,1-7,3.2
		c-1.9,2-2.8,4.7-2.8,7.9C40.7,31.7,43.1,36.5,47.9,41z M59.1,45.6c2.7-5.2,4.1-9.9,4.1-14.1c0-1.3-0.1-2.5-0.4-3.8
		c-5.6,5.5-10.4,10-14.6,13.5c1.1,1,2.8,1.9,5,2.8C55.3,44.8,57.3,45.4,59.1,45.6z M63,27.5c0.4,1.3,0.5,2.5,0.5,3.9
		c0,3.3-1,7.2-2.9,11.8l0.3,0.1c5.8-8.1,12.9-16.4,21.2-24.5c8.3-8.3,14.6-13.6,19.2-16l-0.1-0.3C96.8,3,91.7,5.1,85.9,8.7
		C80,12.3,72.4,18.5,63,27.5z"/>
	<path class="st1" d="M72.3,42.8L72,42.5c2.5-2,4.3-3.6,5.3-4.4s1.9-1.7,2.7-2h3.2c-0.6,0.6-1.5,1.5-2.7,2.7l-7.4,7.6
		c-0.6,0.6-0.9,1.1-1,1.5v0.3c0,0.3,0.1,0.5,0.4,0.8c0.3,0.3,0.5,0.4,0.9,0.4c1,0,2.4-0.6,4.3-1.9c1.9-1.3,3.6-2.5,5.1-4.1l4.2-3.9
		c1.1-1,2.4-2.2,3.7-3.3H94c-3,2.9-5.5,5.3-7.2,7.4l-2.2,2.4c-1,1.3-1.7,2-1.7,2.4c0,0.6,0.4,1,1.3,1c1,0,2.3-0.5,3.8-1.7
		c1.5-1.1,3.7-2.8,6.2-5.1l0.3,0.3c-3.8,3.3-6.3,5.3-7.6,6c-1.3,0.6-2.2,0.9-2.8,0.9c-0.5,0-0.9-0.1-1.3-0.5
		c-0.4-0.4-0.5-0.9-0.5-1.5c0-1.7,1.1-3.6,3.6-6l3.2-3.3l-0.1-0.3C81.2,45.7,76,49.5,73.4,49.5c-0.5,0-1-0.1-1.4-0.5
		c-0.4-0.4-0.5-0.9-0.5-1.5c0-1.4,0.8-2.9,2.3-4.6l5.1-5.2l-0.3-0.1C77.6,38.3,75.4,40.1,72.3,42.8z"/>
	<path class="st1" d="M94.5,42.8l-0.3-0.3l3.8-3.2c1.8-1.5,3.2-2.5,3.9-2.9c0.8-0.5,1.7-0.8,2.4-0.8c0.5,0,1,0.3,1.5,0.6
		c0.5,0.5,0.8,1,0.8,1.8c0,0.5-0.1,1.1-0.3,1.9c2.5-2.8,4.6-4.3,6-4.3c1,0,1.5,0.5,1.5,1.4c0,0.5-0.3,1-0.6,1.4
		c-0.4,0.4-0.8,0.6-1.3,0.6c-0.6,0-0.9-0.3-0.9-0.9c0-0.3,0.1-0.6,0.4-0.9c0.3-0.3,0.6-0.4,0.9-0.4c0.1,0,0.3,0,0.4,0.1
		c0.1,0,0.3,0.1,0.3,0.1c0.1,0,0.3-0.1,0.3-0.3c0-0.5-0.4-0.8-1-0.8c-1.3,0-3.3,1.8-6.2,5.2c-2.9,3.4-4.3,5.6-4.3,6.6
		c0,0.4,0.1,0.6,0.5,1c0.4,0.3,0.6,0.5,1.1,0.5c1.5,0,4.1-1.7,7.9-4.8l2.3-1.9l0.3,0.3c-3.7,3.2-6.2,5.1-7.5,5.8c-1.3,0.6-2.4,1-3,1
		c-0.5,0-1-0.1-1.5-0.5c-0.5-0.4-0.8-0.9-0.8-1.8c0-0.6,0.1-1.3,0.4-2.2c-2.3,2-3.9,3.3-4.8,3.7c-0.9,0.4-1.7,0.6-2.3,0.6
		c-0.6,0-1-0.1-1.4-0.5c-0.4-0.3-0.5-0.6-0.5-1.1c0-0.6,0.3-1.1,0.8-1.7s1-0.8,1.5-0.8c0.3,0,0.5,0.1,0.6,0.3s0.3,0.4,0.3,0.6
		c0,0.4-0.1,0.6-0.5,0.9c-0.4,0.3-0.6,0.4-1,0.4c-0.1,0-0.4-0.1-0.5-0.3c-0.1-0.1-0.3-0.3-0.3-0.3c-0.1,0-0.1,0.1-0.3,0.3
		s-0.1,0.3-0.1,0.5c0,0.3,0.1,0.5,0.5,0.8c0.4,0.3,0.6,0.4,1,0.4c1.5,0,3.8-1.7,6.9-5.1c3-3.3,4.6-5.7,4.6-6.9
		c0-0.9-0.4-1.3-1.3-1.3c-0.8,0-1.7,0.3-2.5,0.8c-0.9,0.5-2.4,1.7-4.4,3.3L94.5,42.8z"/>
	<path class="st1" d="M192.4,42.5l0.3,0.3c-5.3,4.6-9.1,6.9-11.7,6.9c-0.8,0-1.4-0.3-1.9-0.9c-0.5-0.6-0.8-1.3-0.8-2.3
		c0-3.9,3.9-10.5,11.9-19.8c7.9-9.1,15.9-16.8,23.7-22.9l-0.1-0.3c-2,0.5-4.2,1.5-6.6,3c-2.4,1.5-5.3,3.7-8.8,6.7
		c-3.4,3-6.7,6.3-10,9.9s-7.2,8.1-12.1,13.8c-4.8,5.7-7.9,9.1-9.1,10.4c-1.3,1.3-2.4,1.9-3.2,1.9c-0.5,0-0.9-0.3-1.3-0.6
		c-0.4-0.4-0.5-0.9-0.5-1.4c0-0.6,0.1-1.5,0.4-2.4c0.3-0.9,1.1-2.5,2.4-4.7c1.3-2.2,3.3-4.8,6-8.3c2.7-3.3,6-7.1,9.9-11.3
		c3.9-4.2,6.7-7.1,8.4-8.8c1.7-1.5,5-4.3,9.9-8.4l-0.1-0.1c-2.5,0.9-5,2-7.2,3.6c-2.3,1.4-5,3.6-8.1,6.2c-3.2,2.7-5.8,5.5-8.4,8
		s-5.3,6-8.5,9.9c-3.2,3.9-5.8,7-7.6,8.8c-1.9,1.9-3.8,3.6-6.1,5.1c-2.2,1.5-4.2,2.7-6,3.3c-1.8,0.6-3.6,1-5.3,1
		c-1.9,0-3.4-0.4-4.7-1.3c-1.3-0.9-1.8-2-1.8-3.3c0-0.8,0.3-1.5,0.8-2c0.5-0.5,1.1-0.8,1.9-0.8c0.5,0,1,0.3,1.4,0.6
		c0.4,0.4,0.6,0.9,0.6,1.4s-0.3,0.9-0.6,1.3c-0.4,0.4-0.9,0.5-1.4,0.5c-0.4,0-0.9-0.1-1.4-0.4c-0.1,0.4-0.1,0.6-0.1,0.9
		c0,0.8,0.5,1.5,1.7,2c1.1,0.5,2.4,0.9,3.8,0.9c1.7,0,3.3-0.4,5.1-1c1.8-0.6,3.8-1.8,6-3.3c2.3-1.7,4.2-3.3,6-5s4.1-4.4,7-8
		c7.5-9.1,14-16,19.4-20.4s10.5-7.4,15.1-8.6c-3.7,3.4-8,7.9-12.8,13.5c-4.8,5.6-9.8,11.4-14.7,17.8c-5,6.3-8.1,10.9-9.6,13.7
		c-0.1,0.1-0.1,0.3-0.1,0.4c0,0.1-0.1,0.3-0.1,0.3c0,0.5,0.3,0.6,0.8,0.6c0.5,0,1.4-0.5,2.5-1.4c1.1-0.9,3.3-3.3,6.3-6.9l8.9-10.7
		c6.1-7.2,12.1-13.3,17.9-18.4s11.2-8.1,15.9-9.1C209.5,7.6,202,15.8,192.8,27c-9.3,11.2-14,18-14,20.2c0,0.5,0.1,0.9,0.5,1.1
		c0.4,0.4,0.8,0.5,1.4,0.5C183.1,49.2,186.9,47,192.4,42.5z"/>
	<path class="st1" d="M205.8,42.5l0.3,0.3c-2.7,2.4-5.1,4.1-7.4,5.1c-2.2,1-3.9,1.7-5.3,1.7c-1.8,0-2.8-0.9-2.8-2.8
		c0-2.5,1.8-5,5.2-7.1c3.4-2.3,6.1-3.3,8.1-3.3c0.4,0,0.6,0.1,0.9,0.3c0.3,0.3,0.4,0.5,0.4,0.8c0,1.1-1.1,2.3-3.3,3.4
		c-2.2,1.1-4.6,1.9-7.2,2.3c-2.3,2.3-3.4,3.8-3.4,4.7c0,0.4,0.3,0.8,0.6,1.1c0.4,0.4,0.9,0.5,1.4,0.5c1.1,0,2.8-0.5,5-1.5
		C200.5,46.7,202.9,44.9,205.8,42.5z M195.3,42.5c0.6,0,1.9-0.3,3.6-0.9s3.2-1.4,4.2-2.3c1.1-0.9,1.7-1.7,1.7-2.3
		c0-0.4-0.3-0.6-0.8-0.6c-0.6,0-1.3,0.1-1.9,0.5c-0.6,0.4-1.8,1.1-3.2,2.2C197.5,40.3,196.3,41.5,195.3,42.5z"/>
	<path class="st1" d="M206.1,42.8l-0.3-0.3l5.1-4.2c0.8-0.6,1.4-1.1,1.7-1.5c-0.8-0.4-1-1-1-1.8c0-0.5,0.1-0.9,0.5-1.3
		c0.4-0.4,0.6-0.5,1.1-0.5c0.3,0,0.5,0.1,0.8,0.4c0.3,0.3,0.4,0.5,0.4,0.9s-0.1,0.6-0.4,0.9c-0.3,0.3-0.5,0.4-0.9,0.4
		c-0.3,0-0.5-0.1-0.8-0.3c0,0.1,0,0.1,0,0.1c0,0.3,0.1,0.4,0.5,0.6c0.3,0.3,0.8,0.3,1.4,0.3c0.9,0,1.8-0.3,2.8-0.6l1.8,2
		c-0.4,0.9-1.3,1.9-2.7,3c-1.3,1.3-2.7,2.5-3.9,3.9c-1.3,1.4-2,2.2-2.3,2.4c-0.3,0.3-0.3,0.5-0.3,0.8c0,0.6,0.4,0.9,1,0.9
		c0.9,0,2.2-0.5,3.9-1.5c1.8-1,4.1-2.7,6.9-5.1l0.3,0.3c-5.2,4.4-8.9,6.7-11,6.7c-0.6,0-1.1-0.3-1.5-0.6c-0.4-0.4-0.5-1-0.5-1.7
		c0-0.9,0.3-1.7,0.8-2.5c0.5-0.9,1.8-2.2,3.6-3.9c1.8-1.8,3-3,3.8-3.9l-0.1-0.3c-0.9,0.4-1.8,0.5-2.7,0.5c-0.3,0-0.5,0-0.8-0.1
		L206.1,42.8z"/>
	<path class="st1" d="M221.6,42.8l-0.3-0.3l4.7-3.9c0.5-0.5,1.4-1,2.5-1.8c1.1-0.8,2.2-1.1,3-1.1c0.4,0,0.8,0.1,1.1,0.5
		c0.4,0.3,0.5,0.8,0.5,1.3c0,0.8-0.3,1.5-0.8,2.5c-0.5,1-1.7,2.2-3.3,3.7c-1.8,1.5-2.8,2.5-3.2,2.9c-0.4,0.4-0.5,0.9-0.5,1.1
		c0,0.6,0.5,1,1.4,1c1.3,0,3-0.6,5.5-1.9c2.4-1.3,4.3-2.7,5.8-4.1c0.8-2,1.8-3.8,2.9-5.1c1.1-1.4,1.9-2,2.3-2c0.4,0,0.5,0.3,0.5,0.6
		c0,0.5-0.6,1.7-2,3.3c-1.3,1.7-2.4,2.8-3.4,3.4c0.1,0.9,0.5,1.4,1.4,1.4c0.8,0,2-0.6,3.4-1.9l0.3,0.3l-1.1,0.9
		c-1,0.8-1.8,1.1-2.5,1.1c-0.9,0-1.5-0.5-1.9-1.4c-2,1.7-4.2,3-6.3,4.2c-2.3,1.1-3.8,1.7-4.8,1.7c-0.5,0-1-0.3-1.5-0.6
		c-0.5-0.4-0.8-1-0.8-1.8c0-0.9,0.3-1.7,0.9-2.5c0.5-0.9,1.9-2.2,3.9-3.8s3-2.8,3-3.6c0-0.3-0.1-0.4-0.4-0.6
		c-0.3-0.3-0.5-0.4-0.8-0.4c-1,0-3.2,1.3-6.2,3.8L221.6,42.8z"/>
	<path class="st1" d="M256.9,42.5l0.3,0.3c-2.7,2.4-5.1,4.1-7.4,5.1c-2.2,1-3.9,1.7-5.3,1.7c-1.8,0-2.8-0.9-2.8-2.8
		c0-2.5,1.8-5,5.2-7.1c3.4-2.3,6.1-3.3,8.1-3.3c0.4,0,0.6,0.1,0.9,0.3c0.3,0.3,0.4,0.5,0.4,0.8c0,1.1-1.1,2.3-3.3,3.4
		c-2.2,1.1-4.6,1.9-7.2,2.3c-2.3,2.3-3.4,3.8-3.4,4.7c0,0.4,0.3,0.8,0.6,1.1c0.4,0.4,0.9,0.5,1.4,0.5c1.1,0,2.8-0.5,5-1.5
		C251.5,46.7,254.1,44.9,256.9,42.5z M246.5,42.5c0.6,0,1.9-0.3,3.6-0.9c1.7-0.6,3.2-1.4,4.2-2.3c1.1-0.9,1.7-1.7,1.7-2.3
		c0-0.4-0.3-0.6-0.8-0.6c-0.6,0-1.3,0.1-1.9,0.5c-0.6,0.4-1.8,1.1-3.2,2.2C248.6,40.3,247.5,41.5,246.5,42.5z"/>
	<path class="st1" d="M257.1,42.8l-0.3-0.3c1.1-0.9,3.8-3.2,8.3-6.6h3.3l-10.7,10.4c-0.4,0.4-0.6,0.8-0.8,1.1v0.3
		c0,0.3,0.1,0.5,0.4,0.8c0.3,0.3,0.5,0.4,0.9,0.4c0.8,0,1.8-0.4,3-1.1c1.3-0.8,3.6-2.5,6.9-5.3l0.3,0.3c-5,4.3-8.4,6.5-10,6.5
		c-0.5,0-1-0.1-1.4-0.5c-0.4-0.4-0.5-0.9-0.5-1.4c0-0.9,0.3-1.8,0.9-2.7c0.5-0.9,2.7-3.2,6.5-6.7l-0.1-0.1l-3,2.3L257.1,42.8z
		 M273.6,29.3c0,0.5-0.3,0.9-0.6,1.3c-0.4,0.4-0.8,0.5-1.3,0.5c-0.3,0-0.6-0.1-0.8-0.4c-0.1-0.3-0.4-0.5-0.4-0.9s0.1-0.8,0.5-1.1
		c0.4-0.4,0.8-0.5,1.3-0.5c0.4,0,0.6,0.1,0.9,0.4C273.5,28.7,273.6,29.1,273.6,29.3z"/>
	<path class="st1" d="M268.3,42.8l-0.3-0.3c5-4.2,7.7-6.6,8.6-7.2c0.9-0.6,1.5-1,2-1.3c0.5-0.3,0.9-0.5,1.3-0.9
		c3.8-4.1,7.5-7.6,10.9-10.8s6.5-5.6,8.9-7.4c2.4-1.8,4.6-2.7,6.2-2.7c0.6,0,1.1,0.1,1.5,0.5c0.4,0.4,0.6,0.8,0.6,1.3
		c0,1.3-1.4,3.2-4.3,5.7s-6.3,5.1-10.7,7.6s-7.5,4.2-9.6,4.8c-0.5,0.6-1.5,1.7-2.8,3.2l-2.7,2.9l-3.4,4.1c-2.3,2.8-3.6,4.6-3.8,5.3
		V48c0,0.8,0.4,1.1,1.3,1.1c1.9,0,5.3-2.3,10.4-6.7l0.3,0.3l-2,1.8c-4.1,3.4-7,5.2-8.9,5.2c-0.5,0-1-0.3-1.4-0.6
		c-0.4-0.4-0.6-1-0.6-1.5c0-1.7,1.3-4.1,3.8-7.1c2.5-3.2,4.2-5,5-5.5v-0.3c-0.8,0.4-2,1.3-3.6,2.5L268.3,42.8z M283.9,31.8
		c1.8-0.6,4.8-2.2,9.1-4.7s7.7-5.1,10.5-7.5c2.7-2.5,4.1-4.3,4.1-5.6c0-0.4-0.1-0.6-0.5-1c-0.4-0.3-0.8-0.4-1.3-0.4
		c-1.4,0-2.9,0.6-4.8,1.9c-1.9,1.3-4.8,3.9-8.8,8C288.2,26.9,285.4,29.8,283.9,31.8z"/>
	<path class="st1" d="M282.6,42.8l-0.3-0.3c5-4.2,7.7-6.6,8.6-7.2c0.9-0.6,1.5-1,2-1.3c0.5-0.3,0.9-0.5,1.3-0.9
		c3.8-4.1,7.5-7.6,10.9-10.8c3.4-3.2,6.5-5.6,8.9-7.4c2.4-1.8,4.6-2.7,6.2-2.7c0.6,0,1.1,0.1,1.5,0.5c0.4,0.4,0.6,0.8,0.6,1.3
		c0,1.3-1.4,3.2-4.3,5.7s-6.3,5.1-10.7,7.6c-4.3,2.5-7.5,4.2-9.6,4.8c-0.5,0.6-1.5,1.7-2.8,3.2l-2.7,2.9l-3.4,4.1
		c-2.3,2.8-3.6,4.6-3.8,5.3V48c0,0.8,0.4,1.1,1.3,1.1c1.9,0,5.3-2.3,10.4-6.7l0.3,0.3l-2,1.8c-4.1,3.4-7,5.2-8.9,5.2
		c-0.5,0-1-0.3-1.4-0.6c-0.4-0.4-0.6-1-0.6-1.5c0-1.7,1.3-4.1,3.8-7.1c2.5-3.2,4.2-5,5-5.5v-0.3c-0.8,0.4-2,1.3-3.6,2.5L282.6,42.8z
		 M298.3,31.8c1.8-0.6,4.8-2.2,9.1-4.7c4.3-2.5,7.7-5.1,10.5-7.5c2.7-2.5,4.1-4.3,4.1-5.6c0-0.4-0.1-0.6-0.5-1
		c-0.4-0.3-0.8-0.4-1.3-0.4c-1.4,0-2.9,0.6-4.8,1.9c-1.9,1.3-4.8,3.9-8.8,8C302.6,26.9,299.8,29.8,298.3,31.8z"/>
	<path class="st1" d="M310.3,42.5l0.3,0.3c-2.7,2.4-5.1,4.1-7.4,5.1c-2.2,1-3.9,1.7-5.3,1.7c-1.8,0-2.8-0.9-2.8-2.8
		c0-2.5,1.8-5,5.2-7.1c3.4-2.3,6.1-3.3,8.1-3.3c0.4,0,0.6,0.1,0.9,0.3c0.3,0.3,0.4,0.5,0.4,0.8c0,1.1-1.1,2.3-3.3,3.4
		c-2.2,1.1-4.6,1.9-7.2,2.3c-2.3,2.3-3.4,3.8-3.4,4.7c0,0.4,0.3,0.8,0.6,1.1c0.4,0.4,0.9,0.5,1.4,0.5c1.1,0,2.8-0.5,5-1.5
		C305,46.7,307.5,44.9,310.3,42.5z M299.8,42.5c0.6,0,1.9-0.3,3.6-0.9c1.7-0.6,3.2-1.4,4.2-2.3c1.1-0.9,1.7-1.7,1.7-2.3
		c0-0.4-0.3-0.6-0.8-0.6c-0.6,0-1.3,0.1-1.9,0.5c-0.6,0.4-1.8,1.1-3.2,2.2C302.1,40.3,300.8,41.5,299.8,42.5z"/>
	<path class="st1" d="M310.6,42.8l-0.3-0.3c2.5-2,4.3-3.6,5.3-4.4c1-0.9,1.9-1.7,2.7-2h3.2c-0.6,0.6-1.5,1.5-2.7,2.7l-7.4,7.6
		c-0.6,0.6-0.9,1.1-1,1.5v0.3c0,0.3,0.1,0.5,0.4,0.8c0.3,0.3,0.5,0.4,0.9,0.4c1,0,2.4-0.6,4.3-1.9c1.9-1.3,3.6-2.5,5.1-4.1l4.2-3.9
		c1.1-1,2.4-2.2,3.7-3.3h3.3c-3,2.9-5.5,5.3-7.2,7.4l-2.2,2.4c-1,1.3-1.7,2-1.7,2.4c0,0.6,0.4,1,1.3,1c1,0,2.3-0.5,3.8-1.7
		c1.5-1.1,3.7-2.8,6.2-5.1l0.3,0.3c-3.8,3.3-6.3,5.3-7.6,6c-1.3,0.6-2.2,0.9-2.8,0.9c-0.5,0-0.9-0.1-1.3-0.5
		c-0.4-0.4-0.5-0.9-0.5-1.5c0-1.7,1.1-3.6,3.6-6l3.2-3.3l-0.1-0.3c-7.7,7.6-12.9,11.4-15.5,11.4c-0.5,0-1-0.1-1.4-0.5
		c-0.4-0.4-0.5-0.9-0.5-1.5c0-1.4,0.8-2.9,2.3-4.6l5.1-5.2l-0.3-0.1C315.9,38.3,313.9,40.1,310.6,42.8z"/>
	<path class="st1" d="M332.8,42.8l-0.3-0.3l3.8-3.2c1.8-1.5,3.2-2.5,3.9-2.9c0.8-0.4,1.7-0.8,2.4-0.8c0.5,0,1,0.3,1.5,0.6
		c0.5,0.5,0.8,1,0.8,1.8c0,0.5-0.1,1.1-0.3,1.9c2.5-2.8,4.6-4.3,6-4.3c1,0,1.5,0.5,1.5,1.4c0,0.5-0.3,1-0.6,1.4
		c-0.4,0.4-0.8,0.6-1.3,0.6c-0.6,0-0.9-0.3-0.9-0.9c0-0.3,0.1-0.6,0.4-0.9c0.3-0.3,0.6-0.4,0.9-0.4c0.1,0,0.3,0,0.4,0.1
		c0.1,0,0.3,0.1,0.3,0.1c0.1,0,0.3-0.1,0.3-0.3c0-0.5-0.4-0.8-1-0.8c-1.3,0-3.3,1.8-6.2,5.2c-2.9,3.4-4.3,5.6-4.3,6.6
		c0,0.4,0.1,0.6,0.5,1c0.4,0.3,0.6,0.5,1.1,0.5c1.5,0,4.1-1.7,7.9-4.8l2.3-1.9l0.3,0.3c-3.7,3.2-6.2,5.1-7.5,5.8c-1.3,0.6-2.4,1-3,1
		c-0.5,0-1-0.1-1.5-0.5c-0.5-0.4-0.8-0.9-0.8-1.8c0-0.6,0.1-1.3,0.4-2.2c-2.3,2-3.9,3.3-4.8,3.7c-0.9,0.4-1.7,0.6-2.3,0.6
		s-1-0.1-1.4-0.5c-0.4-0.3-0.5-0.6-0.5-1.1c0-0.6,0.3-1.1,0.8-1.7s1-0.8,1.5-0.8c0.3,0,0.5,0.1,0.6,0.3c0.1,0.1,0.3,0.4,0.3,0.6
		c0,0.4-0.1,0.6-0.5,0.9s-0.6,0.4-1,0.4c-0.1,0-0.4-0.1-0.5-0.3c-0.1-0.1-0.3-0.3-0.3-0.3c-0.1,0-0.1,0.1-0.3,0.3
		c-0.1,0.1-0.1,0.3-0.1,0.5c0,0.3,0.1,0.5,0.5,0.8c0.4,0.3,0.6,0.4,1,0.4c1.5,0,3.8-1.7,6.9-5.1c3-3.3,4.6-5.7,4.6-6.9
		c0-0.9-0.4-1.3-1.3-1.3c-0.8,0-1.7,0.3-2.5,0.8s-2.4,1.7-4.4,3.3L332.8,42.8z"/>
</g>
<g>
	<path class="st1" d="M256.5,93.5l0.1-0.1h4.4l-0.1,0.1H256.5z"/>
	<path class="st1" d="M285.3,81.5h1.4l-11.8,11.8c-1.9,1.9-2.8,3-2.8,3.3c0,0.1,0.1,0.3,0.3,0.4c0.1,0.1,0.3,0.1,0.4,0.1
		c0.4,0,0.8-0.3,1.5-0.6c0.6-0.5,1.8-1.4,3.3-2.7l0.1,0.1l-1.4,1.1c-1.1,0.9-1.9,1.5-2.4,1.8c-0.5,0.3-0.9,0.4-1.1,0.4
		c-0.3,0-0.5-0.1-0.6-0.3c-0.1-0.1-0.3-0.4-0.3-0.6c0-0.5,0.4-1.3,1-2l-0.1-0.1c-0.5,0.5-1.1,1-2,1.7c-0.9,0.6-1.5,1-1.9,1.1
		c-0.4,0.1-0.8,0.3-1,0.3c-0.4,0-0.6-0.1-0.9-0.4c-0.3-0.3-0.3-0.5-0.3-0.9c0-0.8,0.4-1.7,1.1-2.4c0.8-0.8,1.8-1.5,3-2
		c1.3-0.5,2.3-0.9,2.9-0.9c0.3,0,0.5,0.1,0.8,0.3c0.3,0.1,0.3,0.4,0.3,0.6c0,0.1-0.1,0.4-0.3,0.8L285.3,81.5z M274.4,91.5
		c0-0.5-0.3-0.6-0.8-0.6c-0.9,0-2.3,0.8-4.1,2.4c-1.8,1.5-2.7,2.7-2.7,3.3c0,0.4,0.3,0.6,0.8,0.6c0.5,0,1-0.1,1.5-0.4
		c0.5-0.3,1.3-0.9,2.3-1.7c1-0.8,1.8-1.5,2.3-2C274.3,92.4,274.4,91.9,274.4,91.5z"/>
	<path class="st1" d="M284.2,93.8L284.2,93.8c-1.3,1.3-2.4,2.2-3.6,2.7s-2,0.8-2.7,0.8c-0.9,0-1.4-0.5-1.4-1.4
		c0-1.3,0.9-2.4,2.5-3.6c1.8-1.1,3-1.7,4.1-1.7c0.1,0,0.4,0,0.5,0.1c0.1,0.1,0.3,0.3,0.3,0.4c0,0.5-0.5,1.1-1.7,1.8
		c-1.1,0.6-2.3,1-3.6,1.1c-1.1,1.1-1.7,1.9-1.7,2.3c0,0.3,0.1,0.4,0.3,0.5c0.3,0.1,0.4,0.3,0.8,0.3c0.6,0,1.4-0.3,2.4-0.8
		C281.5,95.8,282.8,95.1,284.2,93.8z M279,93.8c0.4,0,0.9-0.1,1.8-0.4c0.9-0.3,1.5-0.6,2.2-1.1c0.5-0.5,0.9-0.9,0.9-1.1
		c0-0.3-0.1-0.4-0.4-0.4c-0.3,0-0.6,0.1-1,0.3c-0.4,0.1-0.9,0.5-1.7,1.1C280.1,92.7,279.5,93.3,279,93.8z"/>
	<path class="st1" d="M312.7,86.1c-1.9,3.7-4.3,6.5-7.1,8.4c-2.8,1.9-6.1,2.9-9.9,2.9c-1.7,0-2.9-0.3-3.8-0.9
		c-0.9-0.5-1.3-1.3-1.3-2c0-0.5,0.1-0.9,0.4-1.1c0.3-0.4,0.6-0.5,1-0.5c0.3,0,0.5,0.1,0.8,0.3c0.3,0.1,0.3,0.4,0.3,0.6
		c0,0.3-0.1,0.5-0.3,0.8c-0.3,0.3-0.4,0.3-0.6,0.3c-0.1,0-0.4-0.1-0.6-0.3s-0.4-0.3-0.4-0.4c-0.3,0-0.4,0.1-0.4,0.5
		c0,0.8,0.4,1.4,1.3,1.9c0.8,0.5,2.2,0.8,3.8,0.8c3.3,0,6.1-1,8.5-2.9c2.4-1.9,4.7-4.7,7-8.1c-0.4,0-0.6,0-0.8,0
		c-0.9,0-1.9,0.1-3.3,0.5c-1.4,0.4-2.8,0.8-4.1,1.4l-0.1-0.1c2.9-1.3,5.6-1.9,7.9-1.9c0.3,0,0.4,0,0.5,0c2.7-3.9,6.1-7.5,10-10.3
		v0.1c-1.8,1.4-3,2.4-3.7,3.2c-0.8,0.8-1.7,1.8-2.8,3.3c-1.1,1.5-1.9,2.7-2.4,3.7c0.9,0,1.7-0.1,2.4-0.3c1.3-1.8,2.3-2.8,3-2.8
		c0.4,0,0.6,0.1,0.6,0.5s-0.4,0.9-1,1.4s-1.5,0.9-2.5,1c-0.5,0.8-0.9,1.8-1.1,2.9h-1.3c0.4-0.6,0.5-0.9,0.6-1
		c0.1-0.1,0.5-0.8,1.3-1.9C313.6,86.1,312.9,86.1,312.7,86.1L312.7,86.1z M332,73.6c0,0-0.1,0.1-0.5,0.5c-0.1,0.1-0.3,0.3-0.4,0.3
		l-0.5,0.3c-0.1,0.1-0.4,0.1-0.5,0.3c-0.3,0.1-0.4,0.1-0.6,0.3c-0.3,0.1-0.5,0.1-0.6,0.1c-0.3,0-0.4,0.1-0.6,0.1s-0.4,0-0.6,0
		c-0.8,0-1.8-0.1-3-0.3c-3.9-0.5-7.7-0.8-11.2-0.8c-2.4,0-4.3,0.3-5.6,0.6c-1.3,0.4-2.4,0.9-3.4,1.5c-1,0.6-2,1.4-2.8,2.3
		c-0.9,0.9-1.3,1.8-1.3,2.5s0.4,1.3,1,1.9c0.6,0.5,1.5,0.8,2.7,0.8c2,0,3.9-0.5,5.7-1.7c1.8-1.1,2.7-2.3,2.7-3.4
		c0-0.4-0.1-0.8-0.5-1.1c-0.4-0.3-0.9-0.5-1.5-0.5c-2.4,0-4.8,1.1-7.2,3.6l-0.1-0.1c1-1.1,2.3-2.2,3.6-2.8c1.3-0.6,2.5-0.9,3.8-0.9
		c0.8,0,1.4,0.1,1.8,0.5c0.4,0.4,0.6,0.8,0.6,1.1c0,1-0.5,1.9-1.5,2.8c-1,0.9-2.3,1.5-3.6,1.9c-1.4,0.4-2.5,0.6-3.6,0.6
		c-1,0-1.9-0.3-2.7-0.8c-0.8-0.5-1.1-1.1-1.1-1.9c0-1.7,1.4-3.3,4.2-5.1c2.8-1.8,7.1-2.7,13.2-2.7c2.2,0,4.4,0.1,6.7,0.3
		c2.4,0.1,4.1,0.3,5.1,0.3c0.1,0,0.3,0,0.4,0c0.1,0,0.3,0,0.4,0s0.3,0,0.4,0c0.1,0,0.3,0,0.4,0l0.4-0.1c0.1,0,0.3,0,0.4-0.1
		c0.1-0.1,0.3-0.1,0.4-0.1C331.9,73.6,332,73.6,332,73.6z M315.5,85.5c0.8-0.1,1.4-0.4,2.2-0.8c0.6-0.5,1-0.9,1-1.3
		c0-0.3-0.1-0.4-0.5-0.4s-0.8,0.3-1.3,0.8C316.4,84.4,315.9,84.8,315.5,85.5z"/>
	<path class="st1" d="M314.5,93.9L314.5,93.9l2.4-2.2c0.4-0.4,0.6-0.6,0.9-0.8c-0.4-0.3-0.5-0.5-0.5-0.9c0-0.3,0.1-0.4,0.3-0.6
		c0.1-0.1,0.4-0.3,0.5-0.3c0.1,0,0.3,0,0.4,0.1c0.1,0.1,0.1,0.3,0.1,0.5c0,0.3,0,0.4-0.1,0.5c-0.1,0.1-0.3,0.3-0.5,0.3
		c-0.1,0-0.3,0-0.4-0.1v0.1c0,0.1,0.1,0.3,0.3,0.3c0.1,0,0.4,0.1,0.6,0.1c0.4,0,0.9-0.1,1.4-0.4l0.9,1c-0.3,0.4-0.6,0.9-1.3,1.5
		c-0.6,0.6-1.3,1.3-2,1.9c-0.6,0.6-1,1.1-1.1,1.3c-0.1,0.1-0.1,0.3-0.1,0.4c0,0.3,0.1,0.5,0.5,0.5s1.1-0.3,2-0.8s2-1.4,3.4-2.5
		l0.1,0.1c-2.5,2.3-4.4,3.3-5.6,3.3c-0.4,0-0.6-0.1-0.8-0.3c-0.1-0.3-0.3-0.5-0.3-0.8c0-0.4,0.1-0.9,0.4-1.3c0.3-0.4,0.9-1,1.8-1.9
		c0.9-0.9,1.5-1.5,1.9-2l-0.1-0.1c-0.5,0.1-0.9,0.3-1.3,0.3c-0.1,0-0.3,0-0.4,0L314.5,93.9z"/>
	<path class="st1" d="M328.9,93.8L328.9,93.8c-1.3,1.3-2.4,2.2-3.6,2.7s-2,0.8-2.7,0.8c-0.9,0-1.4-0.5-1.4-1.4
		c0-1.3,0.9-2.4,2.5-3.6c1.8-1.1,3-1.7,4.1-1.7c0.1,0,0.4,0,0.5,0.1c0.1,0.1,0.3,0.3,0.3,0.4c0,0.5-0.5,1.1-1.7,1.8
		c-1.1,0.6-2.3,1-3.6,1.1c-1.1,1.1-1.7,1.9-1.7,2.3c0,0.3,0.1,0.4,0.3,0.5c0.3,0.1,0.4,0.3,0.8,0.3c0.6,0,1.4-0.3,2.4-0.8
		C326.2,95.8,327.5,95.1,328.9,93.8z M323.7,93.8c0.4,0,0.9-0.1,1.8-0.4c0.9-0.3,1.5-0.6,2.2-1.1c0.5-0.5,0.9-0.9,0.9-1.1
		c0-0.3-0.1-0.4-0.4-0.4s-0.6,0.1-1,0.3s-0.9,0.5-1.7,1.1C324.7,92.7,324.2,93.3,323.7,93.8z"/>
	<path class="st1" d="M347,81.5h1.4l-11.8,11.8c-1.9,1.9-2.8,3-2.8,3.3c0,0.1,0.1,0.3,0.3,0.4c0.1,0.1,0.3,0.1,0.4,0.1
		c0.4,0,0.8-0.3,1.5-0.6c0.6-0.5,1.8-1.4,3.3-2.7l0.1,0.1l-1.4,1.1c-1.1,0.9-1.9,1.5-2.4,1.8s-0.9,0.4-1.1,0.4
		c-0.3,0-0.5-0.1-0.6-0.3c-0.1-0.1-0.3-0.4-0.3-0.6c0-0.5,0.4-1.3,1-2l-0.1-0.1c-0.5,0.5-1.1,1-2,1.7c-0.9,0.6-1.5,1-1.9,1.1
		c-0.4,0.1-0.8,0.3-1,0.3c-0.4,0-0.6-0.1-0.9-0.4c-0.3-0.3-0.3-0.5-0.3-0.9c0-0.8,0.4-1.7,1.1-2.4c0.8-0.8,1.8-1.5,3-2
		s2.3-0.9,2.9-0.9c0.3,0,0.5,0.1,0.8,0.3c0.3,0.1,0.3,0.4,0.3,0.6c0,0.1-0.1,0.4-0.3,0.8L347,81.5z M336.1,91.5
		c0-0.5-0.3-0.6-0.8-0.6c-0.9,0-2.3,0.8-4.1,2.4c-1.8,1.5-2.7,2.7-2.7,3.3c0,0.4,0.3,0.6,0.8,0.6c0.5,0,1-0.1,1.5-0.4
		c0.5-0.3,1.3-0.9,2.3-1.7c1-0.8,1.8-1.5,2.3-2C335.8,92.4,336.1,91.9,336.1,91.5z"/>
	<path class="st1" d="M344.2,93.5l0.1-0.1h4.4l-0.1,0.1H344.2z"/>
</g>
</svg>
